<svg width="124" height="163" viewBox="0 0 124 163" fill="none" xmlns="http://www.w3.org/2000/svg">
<path d="M75.0433 92.191C73.6232 92.4936 72.238 93.0719 70.9735 93.8894C67.6796 95.9661 65.7497 98.9696 66.6632 100.597C67.5766 102.225 70.9873 101.861 74.2812 99.7839C75.5624 98.9962 76.7029 97.9823 77.6325 96.8051C78.0641 96.2361 78.1462 95.5207 77.8422 94.9806L76.6555 92.866C76.3536 92.3243 75.7209 92.0598 75.0433 92.191Z" fill="#D5D6DB"/>
<path d="M66.7979 63.7848C65.7682 64.0044 64.7636 64.4239 63.8467 65.0168C61.4588 66.5222 60.0587 68.7001 60.7205 69.8795C61.3823 71.0588 63.8564 70.7941 66.2439 69.2889C67.1729 68.7173 67.9998 67.9818 68.674 67.1282C68.9866 66.7157 69.046 66.1974 68.8256 65.8058L67.9663 64.2746C67.7477 63.882 67.2893 63.6898 66.7979 63.7848Z" fill="#D5D6DB"/>
<path d="M53.4206 64.8133C53.192 64.7842 52.9475 64.8427 52.7348 64.977L47.125 68.5123C46.6557 68.8071 46.4645 69.3848 46.6983 69.8029C46.7517 69.8987 46.8253 69.9809 46.9148 70.0447L60.6023 79.8711L79.3082 68.0829L53.4206 64.8133Z" fill="#029BC5"/>
<path d="M112.248 63.9628L61.4964 95.9213L31.5321 107.695L16.2778 110.571L14.628 107.608L99.214 55.3884C101.735 53.8253 104.536 52.8861 107.335 52.6663C108.56 52.5768 109.769 52.6383 110.933 52.849C111.965 53.0273 112.943 53.3551 113.837 53.8224C114.835 54.3516 116.743 54.4416 117.352 55.4737C117.354 55.4721 118.771 60.1882 112.248 63.9628Z" fill="#E1E6E9"/>
<path d="M62.3337 91.3365L40.1767 126.71C39.8995 127.207 40.0571 127.771 40.5283 127.969C40.8175 128.091 41.173 128.05 41.4728 127.861L47.0683 124.328C48.1445 123.649 49.0996 122.779 49.8745 121.774L92.6968 71.3517L62.3337 91.3365Z" fill="#029BC5"/>
<path d="M6.96679 90.2228C6.6017 90.0912 6.16565 90.151 5.79625 90.3829L1.15806 93.2954C0.526075 93.6919 0.269763 94.4674 0.585378 95.0276C0.645514 95.1341 0.723951 95.2282 0.818221 95.3061L13.6768 105.965L27.3387 97.5542L6.96679 90.2228Z" fill="#029BC5"/>
<path d="M18.1061 107.747L11.0881 117.602C10.9852 117.744 11.0077 117.924 11.1382 118.004C11.2323 118.062 11.3615 118.054 11.4671 117.983L15.7885 115.256C15.8221 115.235 15.8526 115.208 15.8778 115.177L26.1165 102.696L18.1061 107.747Z" fill="#029BC5"/>
<path d="M110.021 53.1824C108.818 52.968 107.569 52.9079 106.303 53.0029C105.058 54.7394 104.256 56.6987 103.976 58.6853C103.954 59.0849 104.268 59.3772 104.678 59.3383C104.806 59.3261 104.933 59.2823 105.047 59.2109L113.022 54.1785C112.098 53.6991 111.087 53.3637 110.021 53.1824Z" fill="#029BC5"/>
<path d="M92.6984 62.4727L97.9253 59.2374L102.716 67.5839L97.489 70.8192L92.6984 62.4727Z" fill="#D5D6DB"/>
<path d="M89.4422 65.7977C88.8132 66.188 88.5577 66.9528 88.8722 67.5058L89.3817 68.4017C89.7171 68.9411 90.4903 69.0469 91.1087 68.6379C91.6973 68.2485 91.938 67.5279 91.6591 66.9888L91.1496 66.0929C90.8354 65.5403 90.0713 65.4081 89.4422 65.7977Z" fill="#3A556A"/>
<path d="M84.7806 68.7153C84.1515 69.1055 83.8961 69.8703 84.2106 70.4233L84.72 71.3193C85.0555 71.8586 85.8286 71.9644 86.447 71.5555C87.0355 71.166 87.2762 70.4454 86.9974 69.9063L86.4879 69.0104C86.1734 68.4581 85.4093 68.3258 84.7806 68.7153Z" fill="#3A556A"/>
<path d="M80.1174 71.6337C79.489 72.0245 79.2345 72.7884 79.5487 73.3409L80.0582 74.2368C80.3936 74.7761 81.1667 74.8819 81.7852 74.473C82.3737 74.0835 82.6144 73.363 82.3355 72.8239L81.826 71.928C81.5116 71.375 80.7467 71.2433 80.1174 71.6337Z" fill="#3A556A"/>
<path d="M75.4557 74.5512C74.8273 74.942 74.5728 75.7059 74.887 76.2584L75.3964 77.1543C75.7319 77.6937 76.5051 77.7995 77.1235 77.3905C77.712 77.0011 77.9527 76.2805 77.6738 75.7414L77.1644 74.8455C76.8496 74.2926 76.0847 74.1609 75.4557 74.5512Z" fill="#3A556A"/>
<path d="M70.7947 77.4689C70.166 77.8598 69.9113 78.624 70.2257 79.1767L70.7355 80.0729C71.0498 80.6254 71.8144 80.757 72.4433 80.367C73.0722 79.9769 73.3273 79.2128 73.013 78.6603L72.5032 77.7641C72.1897 77.2111 71.4254 77.0787 70.7961 77.4681C70.7955 77.4684 70.7953 77.4686 70.7947 77.4689Z" fill="#3A556A"/>
<path d="M66.1328 80.3864C65.504 80.7773 65.2493 81.5415 65.5637 82.0942L66.0735 82.9904C66.3878 83.5429 67.1524 83.6746 67.7813 83.2845C68.4102 82.8944 68.6653 82.1303 68.351 81.5778L67.8412 80.6816C67.5277 80.1286 66.7634 79.9962 66.1341 80.3856C66.1336 80.3859 66.133 80.3862 66.1328 80.3864Z" fill="#3A556A"/>
<path d="M61.4708 83.304C60.842 83.6949 60.5874 84.4591 60.9018 85.0118L61.4116 85.908C61.7266 86.46 62.4916 86.5904 63.1198 86.1998C63.747 85.8099 64.0015 85.0474 63.6887 84.4956L63.1789 83.5994C62.8648 83.0465 62.1002 82.9143 61.4708 83.304Z" fill="#3A556A"/>
<path d="M56.8089 86.2216C56.1802 86.6125 55.9255 87.3767 56.2399 87.9294L56.7497 88.8256C57.0647 89.3776 57.8297 89.5081 58.4579 89.1175C59.0851 88.7275 59.3396 87.965 59.0268 87.4132L58.517 86.517C58.2029 85.9641 57.4383 85.8318 56.8089 86.2216Z" fill="#3A556A"/>
<path d="M52.1475 89.1391C51.5187 89.53 51.264 90.2942 51.5784 90.8469L52.0882 91.7431C52.4033 92.295 53.1683 92.4255 53.7965 92.0349C54.4237 91.6449 54.6782 90.8825 54.3654 90.3307L53.8556 89.4345C53.5412 88.8818 52.7766 88.7495 52.1475 89.1391Z" fill="#3A556A"/>
<path d="M47.4841 92.0574C46.8552 92.4475 46.6002 93.2116 46.9144 93.7641L46.9151 93.7653L47.4249 94.6615C47.7399 95.2135 48.5049 95.3439 49.1331 94.9533C49.7603 94.5634 50.0148 93.8009 49.702 93.2491L49.1922 92.3528C48.8781 91.8 48.1135 91.6677 47.4841 92.0574Z" fill="#3A556A"/>
<path d="M42.8236 94.9742C42.1947 95.3642 41.9396 96.1283 42.2539 96.6808L42.2546 96.6819L42.7644 97.5781C43.0794 98.1301 43.8444 98.2605 44.4727 97.8699C45.0998 97.48 45.3544 96.7175 45.0416 96.1657L44.5318 95.2695C44.2174 94.7168 43.4528 94.5846 42.8236 94.9742Z" fill="#3A556A"/>
</svg>
